{
  "accessors": [
    {
      "bufferView": 2,
      "componentType": 5126,
      "count": 48,
      "max": [
        191.77627563476563,
        385.6000061035156,
        256.0
      ],
      "min": [
        -191.3551788330078,
        -0.2730979919433594,
        -256.11090087890625
      ],
      "type": "VEC3"
    },
    {
      "bufferView": 2,
      "byteOffset": 576,
      "componentType": 5126,
      "count": 48,
      "max": [
        1.0,
        0.0,
        1.0
      ],
      "min": [
        -1.0,
        0.0,
        -1.0
      ],
      "type": "VEC3"
    },
    {
      "bufferView": 1,
      "componentType": 5126,
      "count": 48,
      "max": [
        1.6146442890167236,
        0.9857602119445801
      ],
      "min": [
        -0.4563436508178711,
        0.0230959914624691
      ],
      "type": "VEC2"
    },
    {
      "bufferView": 1,
      "byteOffset": 384,
      "componentType": 5126,
      "count": 48,
      "max": [
        1.6146442890167236,
        0.9857602119445801
      ],
      "min": [
        -0.4563436508178711,
        0.0230959914624691
      ],
      "type": "VEC2"
    },
    {
      "bufferView": 0,
      "componentType": 5125,
      "count": 72,
      "type": "SCALAR"
    },
    {
      "bufferView": 2,
      "byteOffset": 1152,
      "componentType": 5126,
      "count": 407,
      "max": [
        198.38954162597656,
        375.19873046875,
        415.10687255859375
      ],
      "min": [
        -191.57257080078125,
        47.209049224853516,
        -255.63092041015625
      ],
      "type": "VEC3"
    },
    {
      "bufferView": 2,
      "byteOffset": 6036,
      "componentType": 5126,
      "count": 407,
      "max": [
        1.0,
        1.0,
        1.0
      ],
      "min": [
        -1.0,
        -1.0,
        -1.0
      ],
      "type": "VEC3"
    },
    {
      "bufferView": 1,
      "byteOffset": 768,
      "componentType": 5126,
      "count": 407,
      "max": [
        0.9937553405761719,
        0.9972453117370605
      ],
      "min": [
        0.0065860748291015625,
        0.005025625228881836
      ],
      "type": "VEC2"
    },
    {
      "bufferView": 1,
      "byteOffset": 4024,
      "componentType": 5126,
      "count": 407,
      "max": [
        0.9937553405761719,
        0.9972453117370605
      ],
      "min": [
        0.0065860748291015625,
        0.005025625228881836
      ],
      "type": "VEC2"
    },
    {
      "bufferView": 0,
      "byteOffset": 288,
      "componentType": 5125,
      "count": 705,
      "type": "SCALAR"
    },
    {
      "bufferView": 2,
      "byteOffset": 10920,
      "componentType": 5126,
      "count": 644,
      "max": [
        221.72625732421875,
        400.77740478515625,
        453.2935485839844
      ],
      "min": [
        -221.94227600097656,
        0.0,
        -275.0
      ],
      "type": "VEC3"
    },
    {
      "bufferView": 2,
      "byteOffset": 18648,
      "componentType": 5126,
      "count": 644,
      "max": [
        1.0,
        1.0,
        1.0
      ],
      "min": [
        -1.0,
        -1.0,
        -1.0
      ],
      "type": "VEC3"
    },
    {
      "bufferView": 1,
      "byteOffset": 7280,
      "componentType": 5126,
      "count": 644,
      "max": [
        6.895175457000732,
        0.996136486530304
      ],
      "min": [
        -5.277615070343018,
        -0.010445237159729004
      ],
      "type": "VEC2"
    },
    {
      "bufferView": 0,
      "byteOffset": 3108,
      "componentType": 5125,
      "count": 939,
      "type": "SCALAR"
    },
    {
      "bufferView": 2,
      "byteOffset": 26376,
      "componentType": 5126,
      "count": 38,
      "max": [
        -19.29430389404297,
        317.0904541015625,
        414.19293212890625
      ],
      "min": [
        -189.29443359375,
        40.40571212768555,
        232.8578643798828
      ],
      "type": "VEC3"
    },
    {
      "bufferView": 2,
      "byteOffset": 26832,
      "componentType": 5126,
      "count": 38,
      "max": [
        1.0,
        1.0,
        0.0
      ],
      "min": [
        -1.0,
        -1.0,
        -1.0
      ],
      "type": "VEC3"
    },
    {
      "bufferView": 1,
      "byteOffset": 12432,
      "componentType": 5126,
      "count": 38,
      "max": [
        0.0,
        0.0
      ],
      "min": [
        0.0,
        0.0
      ],
      "type": "VEC2"
    },
    {
      "bufferView": 0,
      "byteOffset": 6864,
      "componentType": 5125,
      "count": 60,
      "type": "SCALAR"
    },
    {
      "bufferView": 2,
      "byteOffset": 27288,
      "componentType": 5126,
      "count": 8,
      "max": [
        -104.66838073730469,
        121.85035705566406,
        405.7763977050781
      ],
      "min": [
        -111.45600128173828,
        45.640098571777344,
        405.7763977050781
      ],
      "type": "VEC3"
    },
    {
      "bufferView": 2,
      "byteOffset": 27384,
      "componentType": 5126,
      "count": 8,
      "max": [
        3.775713594222907e-06,
        0.0,
        -1.0
      ],
      "min": [
        0.0,
        0.0,
        -1.0
      ],
      "type": "VEC3"
    },
    {
      "bufferView": 1,
      "byteOffset": 12736,
      "componentType": 5126,
      "count": 8,
      "max": [
        0.8784440755844116,
        0.18930813670158386
      ],
      "min": [
        0.2552521824836731,
        0.1338038444519043
      ],
      "type": "VEC2"
    },
    {
      "bufferView": 0,
      "byteOffset": 7104,
      "componentType": 5125,
      "count": 9,
      "type": "SCALAR"
    },
    {
      "bufferView": 2,
      "byteOffset": 27480,
      "componentType": 5126,
      "count": 75,
      "max": [
        190.00033569335938,
        380.0,
        414.19293212890625
      ],
      "min": [
        -190.0,
        19.78609275817871,
        -255.0
      ],
      "type": "VEC3"
    },
    {
      "bufferView": 2,
      "byteOffset": 28380,
      "componentType": 5126,
      "count": 75,
      "max": [
        1.0,
        9.188703415929922e-07,
        1.0
      ],
      "min": [
        -1.0,
        -4.177110440650722e-06,
        -1.0
      ],
      "type": "VEC3"
    },
    {
      "bufferView": 1,
      "byteOffset": 12800,
      "componentType": 5126,
      "count": 75,
      "max": [
        7.010340690612793,
        1.8858137130737305
      ],
      "min": [
        -6.235570907592773,
        -3.8919756412506104
      ],
      "type": "VEC2"
    },
    {
      "bufferView": 1,
      "byteOffset": 13400,
      "componentType": 5126,
      "count": 75,
      "max": [
        7.010340690612793,
        1.8858137130737305
      ],
      "min": [
        -6.235570907592773,
        -3.8919756412506104
      ],
      "type": "VEC2"
    },
    {
      "bufferView": 0,
      "byteOffset": 7140,
      "componentType": 5125,
      "count": 135,
      "type": "SCALAR"
    },
    {
      "bufferView": 2,
      "byteOffset": 29280,
      "componentType": 5126,
      "count": 36,
      "max": [
        221.72625732421875,
        400.77740478515625,
        453.2934875488281
      ],
      "min": [
        -221.94227600097656,
        237.13623046875,
        -275.0
      ],
      "type": "VEC3"
    },
    {
      "bufferView": 2,
      "byteOffset": 29712,
      "componentType": 5126,
      "count": 36,
      "max": [
        0.6044002175331116,
        0.820901095867157,
        0.02185104787349701
      ],
      "min": [
        -0.5924732685089111,
        0.796387791633606,
        -0.021844908595085144
      ],
      "type": "VEC3"
    },
    {
      "bufferView": 1,
      "byteOffset": 14000,
      "componentType": 5126,
      "count": 36,
      "max": [
        2.9541573524475098,
        0.9524621963500977
      ],
      "min": [
        -0.9769352078437805,
        0.07335197925567627
      ],
      "type": "VEC2"
    },
    {
      "bufferView": 1,
      "byteOffset": 14288,
      "componentType": 5126,
      "count": 36,
      "max": [
        2.9541573524475098,
        0.9524621963500977
      ],
      "min": [
        -0.9769352078437805,
        0.07335197925567627
      ],
      "type": "VEC2"
    },
    {
      "bufferView": 0,
      "byteOffset": 7680,
      "componentType": 5125,
      "count": 42,
      "type": "SCALAR"
    },
    {
      "bufferView": 2,
      "byteOffset": 30144,
      "componentType": 5126,
      "count": 17,
      "max": [
        209.829833984375,
        376.8382873535156,
        453.2935485839844
      ],
      "min": [
        -210.04579162597656,
        221.4925079345703,
        -275.0
      ],
      "type": "VEC3"
    },
    {
      "bufferView": 2,
      "byteOffset": 30348,
      "componentType": 5126,
      "count": 17,
      "max": [
        0.5948228240013123,
        -0.8038536310195923,
        0.0029425162356346846
      ],
      "min": [
        -0.5948198437690735,
        -0.8039824366569519,
        0.0
      ],
      "type": "VEC3"
    },
    {
      "bufferView": 1,
      "byteOffset": 14576,
      "componentType": 5126,
      "count": 17,
      "max": [
        2.7498793601989746,
        1.4958230257034302
      ],
      "min": [
        -4.049130916595459,
        -1.6195688247680664
      ],
      "type": "VEC2"
    },
    {
      "bufferView": 1,
      "byteOffset": 14712,
      "componentType": 5126,
      "count": 17,
      "max": [
        2.7498793601989746,
        1.4958230257034302
      ],
      "min": [
        -4.049130916595459,
        -1.6195688247680664
      ],
      "type": "VEC2"
    },
    {
      "bufferView": 0,
      "byteOffset": 7848,
      "componentType": 5125,
      "count": 27,
      "type": "SCALAR"
    }
  ],
  "asset": {
    "extras": {
      "author": "Yanni Serverius (https://sketchfab.com/YanniServerius)",
      "license": "CC-BY-4.0 (http://creativecommons.org/licenses/by/4.0/)",
      "source": "https://sketchfab.com/3d-models/house-for-panorama-107e1fd0138b4c19ad098b31f2b964e1",
      "title": "House for panorama"
    },
    "generator": "Sketchfab-14.64.0",
    "version": "2.0"
  },
  "bufferViews": [
    {
      "buffer": 0,
      "byteLength": 7956,
      "name": "floatBufferViews",
      "target": 34963
    },
    {
      "buffer": 0,
      "byteLength": 14848,
      "byteOffset": 7956,
      "byteStride": 8,
      "name": "floatBufferViews",
      "target": 34962
    },
    {
      "buffer": 0,
      "byteLength": 30552,
      "byteOffset": 22804,
      "byteStride": 12,
      "name": "floatBufferViews",
      "target": 34962
    }
  ],
  "buffers": [
    {
      "byteLength": 53356,
      "uri": "scene.bin"
    }
  ],
  "images": [
    {
      "uri": "textures/T_Decals1_baseColor.png"
    },
    {
      "uri": "textures/T_Unique_baseColor.png"
    },
    {
      "uri": "textures/T_Trim_baseColor.png"
    },
    {
      "uri": "textures/T_Wall_baseColor.png"
    },
    {
      "uri": "textures/T_Roof_baseColor.png"
    },
    {
      "uri": "textures/T_Underside_Roof_baseColor.png"
    }
  ],
  "materials": [
    {
      "alphaCutoff": 0.6750496763418707,
      "alphaMode": "MASK",
      "doubleSided": true,
      "name": "T_Decals1",
      "pbrMetallicRoughness": {
        "baseColorTexture": {
          "index": 0
        },
        "metallicFactor": 0.0,
        "roughnessFactor": 0.6
      }
    },
    {
      "doubleSided": true,
      "name": "T_Unique",
      "pbrMetallicRoughness": {
        "baseColorTexture": {
          "index": 1
        },
        "metallicFactor": 0.0,
        "roughnessFactor": 0.6
      }
    },
    {
      "doubleSided": true,
      "name": "T_Trim",
      "pbrMetallicRoughness": {
        "baseColorTexture": {
          "index": 2
        },
        "metallicFactor": 0.0,
        "roughnessFactor": 0.6
      }
    },
    {
      "doubleSided": true,
      "name": "lambert1",
      "pbrMetallicRoughness": {
        "baseColorFactor": [
          0.5,
          0.5,
          0.5,
          1.0
        ],
        "metallicFactor": 0.0,
        "roughnessFactor": 0.6
      }
    },
    {
      "doubleSided": true,
      "name": "Default_Material",
      "pbrMetallicRoughness": {
        "baseColorFactor": [
          0.5,
          0.5,
          0.5,
          1.0
        ],
        "metallicFactor": 0.0,
        "roughnessFactor": 0.6
      }
    },
    {
      "doubleSided": true,
      "name": "T_Wall",
      "pbrMetallicRoughness": {
        "baseColorTexture": {
          "index": 3
        },
        "metallicFactor": 0.0,
        "roughnessFactor": 0.6
      }
    },
    {
      "doubleSided": true,
      "name": "T_Roof",
      "pbrMetallicRoughness": {
        "baseColorTexture": {
          "index": 4
        },
        "metallicFactor": 0.0,
        "roughnessFactor": 0.6
      }
    },
    {
      "doubleSided": true,
      "name": "T_Underside_Roof",
      "pbrMetallicRoughness": {
        "baseColorTexture": {
          "index": 5
        },
        "metallicFactor": 0.0,
        "roughnessFactor": 0.6
      }
    }
  ],
  "meshes": [
    {
      "name": "pPlane8_T_Decals1_0",
      "primitives": [
        {
          "attributes": {
            "NORMAL": 1,
            "POSITION": 0,
            "TEXCOORD_0": 2,
            "TEXCOORD_1": 3
          },
          "indices": 4,
          "material": 0,
          "mode": 4
        }
      ]
    },
    {
      "name": "pPlane8_T_Unique_0",
      "primitives": [
        {
          "attributes": {
            "NORMAL": 6,
            "POSITION": 5,
            "TEXCOORD_0": 7,
            "TEXCOORD_1": 8
          },
          "indices": 9,
          "material": 1,
          "mode": 4
        }
      ]
    },
    {
      "name": "pPlane8_T_Trim_0",
      "primitives": [
        {
          "attributes": {
            "NORMAL": 11,
            "POSITION": 10,
            "TEXCOORD_0": 12
          },
          "indices": 13,
          "material": 2,
          "mode": 4
        }
      ]
    },
    {
      "name": "pPlane8_lambert1_0",
      "primitives": [
        {
          "attributes": {
            "NORMAL": 15,
            "POSITION": 14,
            "TEXCOORD_0": 16
          },
          "indices": 17,
          "material": 3,
          "mode": 4
        }
      ]
    },
    {
      "name": "pPlane8_Default_Material_0",
      "primitives": [
        {
          "attributes": {
            "NORMAL": 19,
            "POSITION": 18,
            "TEXCOORD_0": 20
          },
          "indices": 21,
          "material": 4,
          "mode": 4
        }
      ]
    },
    {
      "name": "pPlane8_T_Wall_0",
      "primitives": [
        {
          "attributes": {
            "NORMAL": 23,
            "POSITION": 22,
            "TEXCOORD_0": 24,
            "TEXCOORD_1": 25
          },
          "indices": 26,
          "material": 5,
          "mode": 4
        }
      ]
    },
    {
      "name": "pPlane8_T_Roof_0",
      "primitives": [
        {
          "attributes": {
            "NORMAL": 28,
            "POSITION": 27,
            "TEXCOORD_0": 29,
            "TEXCOORD_1": 30
          },
          "indices": 31,
          "material": 6,
          "mode": 4
        }
      ]
    },
    {
      "name": "pPlane8_T_Underside_Roof_0",
      "primitives": [
        {
          "attributes": {
            "NORMAL": 33,
            "POSITION": 32,
            "TEXCOORD_0": 34,
            "TEXCOORD_1": 35
          },
          "indices": 36,
          "material": 7,
          "mode": 4
        }
      ]
    }
  ],
  "nodes": [
    {
      "children": [
        1
      ],
      "matrix": [
        1.0,
        0.0,
        0.0,
        0.0,
        0.0,
        2.220446049250313e-16,
        -1.0,
        0.0,
        0.0,
        1.0,
        2.220446049250313e-16,
        0.0,
        0.0,
        0.0,
        0.0,
        1.0
      ],
      "name": "Sketchfab_model"
    },
    {
      "children": [
        2
      ],
      "matrix": [
        0.009999999776482582,
        0.0,
        0.0,
        0.0,
        0.0,
        0.0,
        0.009999999776482582,
        0.0,
        0.0,
        -0.009999999776482582,
        0.0,
        0.0,
        0.0,
        0.0,
        0.0,
        1.0
      ],
      "name": "3f17455e3d224ce4bcbb2b63c8c1712a.fbx"
    },
    {
      "children": [
        3
      ],
      "name": "RootNode"
    },
    {
      "children": [
        4,
        5,
        6,
        7,
        8,
        9,
        10,
        11
      ],
      "name": "pPlane8"
    },
    {
      "mesh": 0,
      "name": "pPlane8_T_Decals1_0"
    },
    {
      "mesh": 1,
      "name": "pPlane8_T_Unique_0"
    },
    {
      "mesh": 2,
      "name": "pPlane8_T_Trim_0"
    },
    {
      "mesh": 3,
      "name": "pPlane8_lambert1_0"
    },
    {
      "mesh": 4,
      "name": "pPlane8_Default_Material_0"
    },
    {
      "mesh": 5,
      "name": "pPlane8_T_Wall_0"
    },
    {
      "mesh": 6,
      "name": "pPlane8_T_Roof_0"
    },
    {
      "mesh": 7,
      "name": "pPlane8_T_Underside_Roof_0"
    }
  ],
  "samplers": [
    {
      "magFilter": 9729,
      "minFilter": 9987,
      "wrapS": 10497,
      "wrapT": 10497
    }
  ],
  "scene": 0,
  "scenes": [
    {
      "name": "Sketchfab_Scene",
      "nodes": [
        0
      ]
    }
  ],
  "textures": [
    {
      "sampler": 0,
      "source": 0
    },
    {
      "sampler": 0,
      "source": 1
    },
    {
      "sampler": 0,
      "source": 2
    },
    {
      "sampler": 0,
      "source": 3
    },
    {
      "sampler": 0,
      "source": 4
    },
    {
      "sampler": 0,
      "source": 5
    }
  ]
}
