{
  "accessors": [
    {
      "bufferView": 2,
      "componentType": 5126,
      "count": 19250,
      "max": [
        1.0988415479660034,
        2.5699515342712402,
        1.3017021417617798
      ],
      "min": [
        -1.0415990352630615,
        -2.0037412643432617,
        -1.2023500204086304
      ],
      "type": "VEC3"
    },
    {
      "bufferView": 2,
      "byteOffset": 231000,
      "componentType": 5126,
      "count": 19250,
      "max": [
        1.0,
        1.0,
        1.0
      ],
      "min": [
        -1.0,
        -1.0,
        -1.0
      ],
      "type": "VEC3"
    },
    {
      "bufferView": 3,
      "componentType": 5126,
      "count": 19250,
      "max": [
        1.0,
        1.0,
        1.0,
        1.0
      ],
      "min": [
        -1.0,
        -1.0,
        -1.0,
        -1.0
      ],
      "type": "VEC4"
    },
    {
      "bufferView": 1,
      "componentType": 5126,
      "count": 19250,
      "max": [
        0.9787856340408325,
        1.0
      ],
      "min": [
        0.024337928742170334,
        0.0
      ],
      "type": "VEC2"
    },
    {
      "bufferView": 1,
      "byteOffset": 154000,
      "componentType": 5126,
      "count": 19250,
      "max": [
        0.9787856340408325,
        1.0
      ],
      "min": [
        0.024337928742170334,
        0.0
      ],
      "type": "VEC2"
    },
    {
      "bufferView": 0,
      "componentType": 5125,
      "count": 47451,
      "type": "SCALAR"
    },
    {
      "bufferView": 2,
      "byteOffset": 462000,
      "componentType": 5126,
      "count": 776,
      "max": [
        0.9722414612770081,
        1.961395263671875,
        0.902968168258667
      ],
      "min": [
        -0.9929990172386169,
        -1.9613038301467896,
        -0.9764349460601807
      ],
      "type": "VEC3"
    },
    {
      "bufferView": 2,
      "byteOffset": 471312,
      "componentType": 5126,
      "count": 776,
      "max": [
        1.0,
        1.0,
        1.0
      ],
      "min": [
        -1.0,
        -1.0,
        -1.0
      ],
      "type": "VEC3"
    },
    {
      "bufferView": 1,
      "byteOffset": 308000,
      "componentType": 5126,
      "count": 776,
      "max": [
        0.8906072378158569,
        0.8253957033157349
      ],
      "min": [
        0.09898421913385391,
        0.18961948156356812
      ],
      "type": "VEC2"
    },
    {
      "bufferView": 0,
      "byteOffset": 189804,
      "componentType": 5125,
      "count": 1638,
      "type": "SCALAR"
    }
  ],
  "asset": {
    "extras": {
      "author": "CN Entertainment (https://sketchfab.com/cn-entertainment)",
      "license": "CC-BY-4.0 (http://creativecommons.org/licenses/by/4.0/)",
      "source": "https://sketchfab.com/3d-models/derelict-building-d8c2ce370c4d43c5956a716b48c0fbab",
      "title": "Derelict Building"
    },
    "generator": "Sketchfab-13.74.0",
    "version": "2.0"
  },
  "bufferViews": [
    {
      "buffer": 0,
      "byteLength": 196356,
      "name": "floatBufferViews",
      "target": 34963
    },
    {
      "buffer": 0,
      "byteLength": 314208,
      "byteOffset": 196356,
      "byteStride": 8,
      "name": "floatBufferViews",
      "target": 34962
    },
    {
      "buffer": 0,
      "byteLength": 480624,
      "byteOffset": 510564,
      "byteStride": 12,
      "name": "floatBufferViews",
      "target": 34962
    },
    {
      "buffer": 0,
      "byteLength": 308000,
      "byteOffset": 991188,
      "byteStride": 16,
      "name": "floatBufferViews",
      "target": 34962
    }
  ],
  "buffers": [
    {
      "byteLength": 1299188,
      "uri": "scene.bin"
    }
  ],
  "images": [
    {
      "uri": "textures/Building1_baseColor.jpeg"
    },
    {
      "uri": "textures/Building1_normal.png"
    }
  ],
  "materials": [
    {
      "doubleSided": true,
      "name": "Building1",
      "normalTexture": {
        "index": 1,
        "texCoord": 1
      },
      "pbrMetallicRoughness": {
        "baseColorTexture": {
          "index": 0
        },
        "metallicFactor": 0.0,
        "roughnessFactor": 0.8211145618000169
      }
    },
    {
      "doubleSided": true,
      "name": "Building1_Windows",
      "pbrMetallicRoughness": {
        "baseColorTexture": {
          "index": 0
        },
        "metallicFactor": 0.0,
        "roughnessFactor": 0.0
      }
    }
  ],
  "meshes": [
    {
      "name": "Cube.001_Building1_0",
      "primitives": [
        {
          "attributes": {
            "NORMAL": 1,
            "POSITION": 0,
            "TANGENT": 2,
            "TEXCOORD_0": 3,
            "TEXCOORD_1": 4
          },
          "indices": 5,
          "material": 0,
          "mode": 4
        }
      ]
    },
    {
      "name": "Cube.001_Building1 Windows_0",
      "primitives": [
        {
          "attributes": {
            "NORMAL": 7,
            "POSITION": 6,
            "TEXCOORD_0": 8
          },
          "indices": 9,
          "material": 1,
          "mode": 4
        }
      ]
    }
  ],
  "nodes": [
    {
      "children": [
        1
      ],
      "matrix": [
        1.0,
        0.0,
        0.0,
        0.0,
        0.0,
        2.220446049250313e-16,
        -1.0,
        0.0,
        0.0,
        1.0,
        2.220446049250313e-16,
        0.0,
        0.0,
        0.0,
        0.0,
        1.0
      ],
      "name": "Sketchfab_model"
    },
    {
      "children": [
        2
      ],
      "matrix": [
        0.009999999776482582,
        0.0,
        0.0,
        0.0,
        0.0,
        0.0,
        0.009999999776482582,
        0.0,
        0.0,
        -0.009999999776482582,
        0.0,
        0.0,
        0.0,
        0.0,
        0.0,
        1.0
      ],
      "name": "Building.fbx"
    },
    {
      "children": [
        3
      ],
      "name": "RootNode"
    },
    {
      "children": [
        4,
        5
      ],
      "matrix": [
        200.0,
        0.0,
        0.0,
        0.0,
        0.0,
        -3.258413587836628e-05,
        -199.99999999999736,
        0.0,
        0.0,
        199.99999999999736,
        -3.258413587836628e-05,
        0.0,
        0.22159424424171448,
        239.65957641601563,
        -0.748223066329956,
        1.0
      ],
      "name": "Cube.001"
    },
    {
      "mesh": 0,
      "name": "Cube.001_Building1_0"
    },
    {
      "mesh": 1,
      "name": "Cube.001_Building1 Windows_0"
    }
  ],
  "samplers": [
    {
      "magFilter": 9729,
      "minFilter": 9987,
      "wrapS": 10497,
      "wrapT": 10497
    }
  ],
  "scene": 0,
  "scenes": [
    {
      "name": "Sketchfab_Scene",
      "nodes": [
        0
      ]
    }
  ],
  "textures": [
    {
      "sampler": 0,
      "source": 0
    },
    {
      "sampler": 0,
      "source": 1
    }
  ]
}
